HIERARCHY
ROOT Hips
{
 OFFSET 0.000000 0.000000 0.000000
 CHANNELS 6 Xposition Yposition Zposition Yrotation Xrotation Zrotation
 JOINT Chest
 {
  OFFSET 0.000000 9.588913 -0.003946
  CHANNELS 3 Yrotation Xrotation Zrotation
  JOINT Chest2
  {
   OFFSET 0.000000 9.541882 0.008053
   CHANNELS 3 Yrotation Xrotation Zrotation
   JOINT Chest3
   {
    OFFSET 0.000000 9.501360 0.000000
    CHANNELS 3 Yrotation Xrotation Zrotation
    JOINT Chest4
    {
     OFFSET 0.000000 9.491660 0.000000
     CHANNELS 3 Yrotation Xrotation Zrotation
     JOINT Neck
     {
      OFFSET 0.000000 14.331917 0.000000
      CHANNELS 3 Yrotation Xrotation Zrotation
      JOINT Head
      {
       OFFSET 0.000000 8.884799 0.017034
       CHANNELS 3 Yrotation Xrotation Zrotation
       End Site
       {
        OFFSET 0.000000 16.896195 0.008993
       }
      }
     }
     JOINT RightCollar
     {
      OFFSET -2.923010 9.499495 0.000000
      CHANNELS 3 Yrotation Xrotation Zrotation
      JOINT RightShoulder
      {
       OFFSET -13.795216 0.000000 0.000000
       CHANNELS 3 Yrotation Xrotation Zrotation
       JOINT RightElbow
       {
        OFFSET -30.272209 0.000000 0.000000
        CHANNELS 3 Yrotation Xrotation Zrotation
        JOINT RightWrist
        {
         OFFSET -24.478199 0.000000 0.000000
         CHANNELS 3 Yrotation Xrotation Zrotation
         End Site
         {
          OFFSET -18.090752 0.000000 0.000000
         }
        }
       }
      }
     }
     JOINT LeftCollar
     {
      OFFSET 2.923010 9.499495 0.000000
      CHANNELS 3 Yrotation Xrotation Zrotation
      JOINT LeftShoulder
      {
       OFFSET 13.795216 0.000000 0.000000
       CHANNELS 3 Yrotation Xrotation Zrotation
       JOINT LeftElbow
       {
        OFFSET 30.272209 0.000000 0.000000
        CHANNELS 3 Yrotation Xrotation Zrotation
        JOINT LeftWrist
        {
         OFFSET 24.478199 0.000000 0.000000
         CHANNELS 3 Yrotation Xrotation Zrotation
         End Site
         {
          OFFSET 18.090752 0.000000 0.000000
         }
        }
       }
      }
     }
    }
   }
  }
 }
 JOINT RightHip
 {
  OFFSET -7.826875 0.019532 0.001973
  CHANNELS 3 Yrotation Xrotation Zrotation
  JOINT RightKnee
  {
   OFFSET 0.000000 -40.546152 -0.001885
   CHANNELS 3 Yrotation Xrotation Zrotation
   JOINT RightAnkle
   {
    OFFSET 0.000000 -39.417092 -0.003189
    CHANNELS 3 Yrotation Xrotation Zrotation
    JOINT RightToe
    {
     OFFSET 0.000000 -7.579396 17.243563
     CHANNELS 3 Yrotation Xrotation Zrotation
     End Site
     {
      OFFSET 0.000000 -1.500329 6.694466
     }
    }
   }
  }
 }
 JOINT LeftHip
 {
  OFFSET 7.826875 0.019532 0.001973
  CHANNELS 3 Yrotation Xrotation Zrotation
  JOINT LeftKnee
  {
   OFFSET 0.000000 -40.546152 -0.001885
   CHANNELS 3 Yrotation Xrotation Zrotation
   JOINT LeftAnkle
   {
    OFFSET 0.000000 -39.417092 -0.003189
    CHANNELS 3 Yrotation Xrotation Zrotation
    JOINT LeftToe
    {
     OFFSET 0.000000 -7.579396 17.243563
     CHANNELS 3 Yrotation Xrotation Zrotation
     End Site
     {
      OFFSET 0.000000 -1.500329 6.694466
     }
    }
   }
  }
 }
}
MOTION
Frames: 7
Frame Time: 0.008333
-23.336402 87.991497 -0.819145 -143.851732 -9.812108 -1.095169 3.436845 2.899095 -1.305096 1.922129 1.637045 -0.611387 2.400168 2.049432 -0.755699 1.922129 1.637045 -0.611387 -3.855850 27.262916 5.125006 -5.452977 4.606471 6.575191 3.893773 -5.588982 -9.584929 -20.415104 -41.721540 43.491329 51.134230 -14.064414 -5.110311 -12.035811 -0.878838 9.543502 -2.004838 2.125965 0.684860 2.181781 -1.625723 -85.717910 0.774192 -1.965376 -0.327983 -2.730336 2.577631 2.455069 -7.404182 14.179463 -10.716647 0.132496 2.224344 -0.948857 1.683682 -6.336270 8.151832 0.054570 -0.401570 0.015948 21.876168 14.929018 12.654009 13.033562 -2.787682 -0.456707 0.105668 -3.013456 -9.280005 0.078671 0.392508 0.037202
-23.326408 87.991937 -0.821879 -143.876527 -9.800436 -1.098140 3.433032 2.900869 -1.299149 1.919996 1.638218 -0.608228 2.397514 2.050879 -0.751754 1.919996 1.638218 -0.608228 -3.846207 27.275409 5.120279 -5.441145 4.621332 6.567721 3.858711 -5.505626 -9.585068 -20.509665 -41.390397 43.546426 49.857036 -13.899081 -4.971369 -12.626725 -0.690894 9.726613 -1.998390 2.122179 0.673421 2.177918 -1.627629 -85.697539 0.770824 -1.942244 -0.328638 -2.718598 2.606595 2.447203 -7.380954 14.162481 -10.703933 0.137110 2.225538 -0.945042 1.686657 -6.335765 8.144623 0.052912 -0.398322 0.016329 21.886899 14.914446 12.657929 13.046842 -2.785781 -0.455452 0.108007 -3.004641 -9.285882 0.078106 0.390413 0.036825
-23.316552 87.992106 -0.825001 -143.899998 -9.791886 -1.103190 3.428896 2.903146 -1.292844 1.917639 1.639574 -0.604543 2.394583 2.052550 -0.747151 1.917639 1.639574 -0.604543 -3.835447 27.286261 5.112162 -5.427222 4.633692 6.556120 3.839286 -5.417130 -9.578409 -20.657160 -41.076227 43.621018 48.604252 -13.659111 -4.834974 -13.276549 -0.439171 10.024895 -1.990038 2.119535 0.660844 2.181355 -1.628037 -85.676465 0.765115 -1.915222 -0.329914 -2.706984 2.632250 2.440588 -7.355658 14.148647 -10.689998 0.140344 2.228887 -0.939252 1.689024 -6.336361 8.136498 0.050954 -0.395529 0.016340 21.895881 14.901563 12.664653 13.059646 -2.781610 -0.453879 0.111477 -2.999431 -9.289739 0.077396 0.390271 0.034690
-23.306917 87.992093 -0.828372 -143.918145 -9.786324 -1.109784 3.424477 2.907316 -1.285820 1.915206 1.641796 -0.600389 2.391556 2.055303 -0.741958 1.915206 1.641797 -0.600389 -3.825543 27.293758 5.102591 -5.413873 4.641679 6.543026 3.836726 -5.327814 -9.567237 -20.865484 -40.774944 43.743574 47.396276 -13.367640 -4.711778 -13.993508 -0.094790 10.406800 -1.983133 2.113941 0.648120 2.183931 -1.625792 -85.656119 0.759888 -1.893912 -0.332832 -2.698078 2.651386 2.434693 -7.335902 14.138524 -10.676225 0.142818 2.232267 -0.932810 1.691719 -6.337003 8.128826 0.049069 -0.393041 0.015565 21.900880 14.889466 12.674282 13.070647 -2.773832 -0.453812 0.115088 -2.998065 -9.290714 0.076793 0.391830 0.031452
-23.297237 87.991973 -0.831897 -143.931523 -9.782675 -1.117544 3.419717 2.913990 -1.278319 1.912541 1.645288 -0.596417 2.388239 2.059642 -0.736986 1.912541 1.645288 -0.596417 -3.816450 27.297250 5.092931 -5.401368 4.644574 6.529960 3.847678 -5.238196 -9.551483 -21.094963 -40.456759 43.907818 46.253766 -13.079442 -4.626835 -14.783293 0.340946 10.811818 -1.979316 2.101350 0.635815 2.184963 -1.621912 -85.637085 0.756675 -1.881120 -0.334608 -2.690462 2.665053 2.429076 -7.323279 14.131851 -10.662101 0.145609 2.232918 -0.926996 1.693569 -6.336338 8.121541 0.047595 -0.390367 0.014531 21.903266 14.877840 12.685945 13.074997 -2.764734 -0.453653 0.121887 -2.998525 -9.292066 0.076803 0.394034 0.029110
-23.287334 87.991813 -0.835455 -143.942191 -9.779995 -1.124760 3.415599 2.922895 -1.271042 1.910153 1.650141 -0.592927 2.385263 2.065686 -0.732609 1.910154 1.650141 -0.592927 -3.808898 27.296696 5.084025 -5.390730 4.642457 6.518052 3.864658 -5.153707 -9.531086 -21.295562 -40.094016 44.081915 45.167931 -12.836690 -4.602301 -15.634407 0.839331 11.212899 -1.977751 2.082013 0.622705 2.184574 -1.616396 -85.623199 0.753669 -1.876787 -0.330243 -2.681948 2.677372 2.423424 -7.316580 14.126931 -10.648784 0.149341 2.231275 -0.921789 1.694130 -6.334974 8.113630 0.046562 -0.386942 0.013984 21.904456 14.867552 12.697255 13.072864 -2.757304 -0.452006 0.131702 -2.997587 -9.296486 0.077034 0.395436 0.028860
-23.277146 87.991664 -0.839021 -143.951497 -9.777980 -1.129476 3.414204 2.933488 -1.263674 1.909208 1.656189 -0.589698 2.384088 2.073228 -0.728546 1.909209 1.656189 -0.589698 -3.804809 27.292770 5.076491 -5.384275 4.636404 6.508477 3.872907 -5.079899 -9.510551 -21.450657 -39.680971 44.261528 44.115019 -12.632843 -4.646057 -16.517657 1.358919 11.608861 -1.981493 2.060816 0.607343 2.178310 -1.611673 -85.612732 0.750288 -1.886714 -0.322903 -2.673007 2.682638 2.417315 -7.312609 14.123202 -10.638234 0.154656 2.227927 -0.916976 1.694025 -6.333683 8.105780 0.046007 -0.382730 0.013541 21.908280 14.858699 12.705944 13.070808 -2.752926 -0.447825 0.137248 -2.992940 -9.304801 0.077375 0.395423 0.030596
